<?xml version="1.0" encoding="UTF-8"?>
<svg width="1733px" height="1322px" viewBox="0 0 1733 1322" version="1.1" xmlns="http://www.w3.org/2000/svg" xmlns:xlink="http://www.w3.org/1999/xlink" style="background: #383838;">
    <!-- Generator: Sketch 49.2 (51160) - http://www.bohemiancoding.com/sketch -->
    <title>Artboard</title>
    <desc>Created with Sketch.</desc>
    <defs>
        <path d="M1617.40358,1037.86495 L1627.1751,1018.9372 C1627.31125,1018.67348 1627.6379,1018.56879 1627.90471,1018.70335 C1628.00401,1018.75344 1628.08528,1018.83255 1628.13746,1018.92992 L1638.28113,1037.85767 C1638.42134,1038.1193 1638.32043,1038.44373 1638.05573,1038.58231 C1637.97753,1038.62326 1637.89037,1038.64467 1637.80186,1038.64467 L1617.88668,1038.64467 C1617.58715,1038.64467 1617.34433,1038.40466 1617.34433,1038.1086 C1617.34433,1038.0239 1617.36463,1037.9404 1617.40358,1037.86495 Z" id="path-1"></path>
        <filter x="-61.9%" y="-75.0%" width="223.8%" height="230.0%" filterUnits="objectBoundingBox" id="filter-2">
            <feOffset dx="0" dy="-2" in="SourceAlpha" result="shadowOffsetOuter1"></feOffset>
            <feGaussianBlur stdDeviation="4" in="shadowOffsetOuter1" result="shadowBlurOuter1"></feGaussianBlur>
            <feColorMatrix values="0 0 0 0 0   0 0 0 0 0   0 0 0 0 0  0 0 0 0.5 0" type="matrix" in="shadowBlurOuter1"></feColorMatrix>
        </filter>
        <path d="M1321.26886,1172.0819 L1331.04038,1152.20776 C1331.17652,1151.93086 1331.50318,1151.82093 1331.76998,1151.96222 C1331.86928,1152.01481 1331.95056,1152.09788 1332.00274,1152.20012 L1342.14641,1172.07426 C1342.28662,1172.34896 1342.1857,1172.68962 1341.92101,1172.83513 C1341.8428,1172.87813 1341.75564,1172.9006 1341.66714,1172.9006 L1321.75195,1172.9006 C1321.45242,1172.9006 1321.2096,1172.6486 1321.2096,1172.33773 C1321.2096,1172.24879 1321.22991,1172.16112 1321.26886,1172.0819 Z" id="path-3"></path>
        <filter x="-61.9%" y="-71.4%" width="223.8%" height="223.8%" filterUnits="objectBoundingBox" id="filter-4">
            <feOffset dx="0" dy="-2" in="SourceAlpha" result="shadowOffsetOuter1"></feOffset>
            <feGaussianBlur stdDeviation="4" in="shadowOffsetOuter1" result="shadowBlurOuter1"></feGaussianBlur>
            <feColorMatrix values="0 0 0 0 0   0 0 0 0 0   0 0 0 0 0  0 0 0 0.5 0" type="matrix" in="shadowBlurOuter1"></feColorMatrix>
        </filter>
        <path d="M467.970489,1049.05613 L476.346076,1032.02115 C476.46277,1031.78381 476.74276,1031.68958 476.97145,1031.81069 C477.056566,1031.85577 477.126229,1031.92697 477.170958,1032.0146 L485.865529,1049.04958 C485.985708,1049.28504 485.89921,1049.57703 485.672332,1049.70176 C485.605296,1049.73861 485.530589,1049.75787 485.454729,1049.75787 L468.38457,1049.75787 C468.127827,1049.75787 467.919696,1049.54187 467.919696,1049.27541 C467.919696,1049.19918 467.937103,1049.12403 467.970489,1049.05613 Z" id="path-5"></path>
        <filter x="-72.2%" y="-83.3%" width="244.4%" height="244.4%" filterUnits="objectBoundingBox" id="filter-6">
            <feOffset dx="0" dy="-2" in="SourceAlpha" result="shadowOffsetOuter1"></feOffset>
            <feGaussianBlur stdDeviation="4" in="shadowOffsetOuter1" result="shadowBlurOuter1"></feGaussianBlur>
            <feColorMatrix values="0 0 0 0 0   0 0 0 0 0   0 0 0 0 0  0 0 0 0.5 0" type="matrix" in="shadowBlurOuter1"></feColorMatrix>
        </filter>
        <path d="M333.436676,119.902519 L342.742884,100.974768 C342.872544,100.711054 343.183643,100.606359 343.437744,100.740924 C343.532316,100.791007 343.60972,100.87012 343.659418,100.967492 L353.320054,119.895243 C353.453586,120.156868 353.357477,120.4813 353.10539,120.619884 C353.030906,120.660831 352.947898,120.682238 352.863609,120.682238 L333.896766,120.682238 C333.611496,120.682238 333.380239,120.442233 333.380239,120.146171 C333.380239,120.061467 333.39958,119.977968 333.436676,119.902519 Z" id="path-7"></path>
        <filter x="-65.0%" y="-75.0%" width="230.0%" height="230.0%" filterUnits="objectBoundingBox" id="filter-8">
            <feOffset dx="0" dy="-2" in="SourceAlpha" result="shadowOffsetOuter1"></feOffset>
            <feGaussianBlur stdDeviation="4" in="shadowOffsetOuter1" result="shadowBlurOuter1"></feGaussianBlur>
            <feColorMatrix values="0 0 0 0 0   0 0 0 0 0   0 0 0 0 0  0 0 0 0.5 0" type="matrix" in="shadowBlurOuter1"></feColorMatrix>
        </filter>
        <path d="M1108.85516,1194.20853 L1116.30013,1179.06633 C1116.40386,1178.85536 1116.65274,1178.7716 1116.85602,1178.87925 C1116.93167,1178.91932 1116.9936,1178.98261 1117.03336,1179.06051 L1124.76186,1194.20271 C1124.86869,1194.41201 1124.7918,1194.67155 1124.59013,1194.78242 C1124.53055,1194.81518 1124.46414,1194.8323 1124.39671,1194.8323 L1109.22323,1194.8323 C1108.99502,1194.8323 1108.81001,1194.6403 1108.81001,1194.40345 C1108.81001,1194.33569 1108.82548,1194.26889 1108.85516,1194.20853 Z" id="path-9"></path>
        <filter x="-81.2%" y="-93.8%" width="262.5%" height="262.5%" filterUnits="objectBoundingBox" id="filter-10">
            <feOffset dx="0" dy="-2" in="SourceAlpha" result="shadowOffsetOuter1"></feOffset>
            <feGaussianBlur stdDeviation="4" in="shadowOffsetOuter1" result="shadowBlurOuter1"></feGaussianBlur>
            <feColorMatrix values="0 0 0 0 0   0 0 0 0 0   0 0 0 0 0  0 0 0 0.5 0" type="matrix" in="shadowBlurOuter1"></feColorMatrix>
        </filter>
        <path d="M1156.87076,951.126671 L1164.31572,935.98447 C1164.41945,935.773499 1164.66833,935.689743 1164.87161,935.797395 C1164.94727,935.837462 1165.00919,935.900752 1165.04895,935.97865 L1172.77746,951.120851 C1172.88429,951.33015 1172.8074,951.589696 1172.60573,951.700563 C1172.54614,951.73332 1172.47974,951.750446 1172.4123,951.750446 L1157.23883,951.750446 C1157.01061,951.750446 1156.82561,951.558442 1156.82561,951.321593 C1156.82561,951.253829 1156.84108,951.18703 1156.87076,951.126671 Z" id="path-11"></path>
        <filter x="-81.2%" y="-93.8%" width="262.5%" height="262.5%" filterUnits="objectBoundingBox" id="filter-12">
            <feOffset dx="0" dy="-2" in="SourceAlpha" result="shadowOffsetOuter1"></feOffset>
            <feGaussianBlur stdDeviation="4" in="shadowOffsetOuter1" result="shadowBlurOuter1"></feGaussianBlur>
            <feColorMatrix values="0 0 0 0 0   0 0 0 0 0   0 0 0 0 0  0 0 0 0.5 0" type="matrix" in="shadowBlurOuter1"></feColorMatrix>
        </filter>
        <path d="M971.35067,201.26482 L978.795636,186.122619 C978.899364,185.911648 979.148244,185.827892 979.351524,185.935544 C979.427182,185.975611 979.489105,186.038901 979.528864,186.116799 L987.257372,201.259 C987.364198,201.468299 987.287311,201.727845 987.085641,201.838712 C987.026054,201.87147 986.959647,201.888596 986.892216,201.888596 L971.718742,201.888596 C971.490526,201.888596 971.30552,201.696591 971.30552,201.459742 C971.30552,201.391978 971.320993,201.32518 971.35067,201.26482 Z" id="path-13"></path>
        <filter x="-81.2%" y="-93.8%" width="262.5%" height="262.5%" filterUnits="objectBoundingBox" id="filter-14">
            <feOffset dx="0" dy="-2" in="SourceAlpha" result="shadowOffsetOuter1"></feOffset>
            <feGaussianBlur stdDeviation="4" in="shadowOffsetOuter1" result="shadowBlurOuter1"></feGaussianBlur>
            <feColorMatrix values="0 0 0 0 0   0 0 0 0 0   0 0 0 0 0  0 0 0 0.5 0" type="matrix" in="shadowBlurOuter1"></feColorMatrix>
        </filter>
        <path d="M1570.40955,1179.48313 L1579.25045,1162.44816 C1579.37363,1162.21081 1579.66917,1162.11659 1579.91057,1162.2377 C1580.00041,1162.28277 1580.07394,1162.35397 1580.12116,1162.44161 L1589.29876,1179.47658 C1589.42562,1179.71205 1589.33431,1180.00404 1589.09483,1180.12876 C1589.02407,1180.16561 1588.94521,1180.18488 1588.86514,1180.18488 L1570.84664,1180.18488 C1570.57563,1180.18488 1570.35594,1179.96887 1570.35594,1179.70242 C1570.35594,1179.62619 1570.37431,1179.55104 1570.40955,1179.48313 Z" id="path-15"></path>
        <filter x="-68.4%" y="-83.3%" width="236.8%" height="244.4%" filterUnits="objectBoundingBox" id="filter-16">
            <feOffset dx="0" dy="-2" in="SourceAlpha" result="shadowOffsetOuter1"></feOffset>
            <feGaussianBlur stdDeviation="4" in="shadowOffsetOuter1" result="shadowBlurOuter1"></feGaussianBlur>
            <feColorMatrix values="0 0 0 0 0   0 0 0 0 0   0 0 0 0 0  0 0 0 0.5 0" type="matrix" in="shadowBlurOuter1"></feColorMatrix>
        </filter>
        <path d="M1131.36499,711.681676 L1141.13651,692.753925 C1141.27265,692.490211 1141.59931,692.385516 1141.86611,692.520081 C1141.96541,692.570164 1142.04669,692.649276 1142.09887,692.746649 L1152.24254,711.6744 C1152.38274,711.936024 1152.28183,712.260457 1152.01714,712.39904 C1151.93893,712.439988 1151.85177,712.461395 1151.76327,712.461395 L1131.84808,712.461395 C1131.54855,712.461395 1131.30573,712.22139 1131.30573,711.925328 C1131.30573,711.840624 1131.32604,711.757125 1131.36499,711.681676 Z" id="path-17"></path>
        <filter x="-61.9%" y="-75.0%" width="223.8%" height="230.0%" filterUnits="objectBoundingBox" id="filter-18">
            <feOffset dx="0" dy="-2" in="SourceAlpha" result="shadowOffsetOuter1"></feOffset>
            <feGaussianBlur stdDeviation="4" in="shadowOffsetOuter1" result="shadowBlurOuter1"></feGaussianBlur>
            <feColorMatrix values="0 0 0 0 0   0 0 0 0 0   0 0 0 0 0  0 0 0 0.5 0" type="matrix" in="shadowBlurOuter1"></feColorMatrix>
        </filter>
        <path d="M523.795431,49.5445224 L532.636328,31.5631587 C532.759505,31.3126308 533.05505,31.2131702 533.296445,31.3410071 C533.386289,31.388586 533.459823,31.4637429 533.507036,31.5562468 L542.68464,49.5376105 C542.811495,49.7861535 542.720192,50.0943643 542.480709,50.2260186 C542.409949,50.2649184 542.331091,50.2852556 542.251017,50.2852556 L524.232516,50.2852556 C523.96151,50.2852556 523.741816,50.0572504 523.741816,49.7759916 C523.741816,49.6955227 523.760189,49.6161991 523.795431,49.5445224 Z" id="path-19"></path>
        <filter x="-68.4%" y="-78.9%" width="236.8%" height="236.8%" filterUnits="objectBoundingBox" id="filter-20">
            <feOffset dx="0" dy="-2" in="SourceAlpha" result="shadowOffsetOuter1"></feOffset>
            <feGaussianBlur stdDeviation="4" in="shadowOffsetOuter1" result="shadowBlurOuter1"></feGaussianBlur>
            <feColorMatrix values="0 0 0 0 0   0 0 0 0 0   0 0 0 0 0  0 0 0 0.5 0" type="matrix" in="shadowBlurOuter1"></feColorMatrix>
        </filter>
        <path d="M972.808054,625.562883 L980.25302,610.420682 C980.356748,610.209711 980.605628,610.125954 980.808908,610.233607 C980.884566,610.273673 980.946489,610.336963 980.986248,610.414861 L988.714756,625.557062 C988.821582,625.766361 988.744695,626.025907 988.543025,626.136774 C988.483437,626.169532 988.417031,626.186658 988.3496,626.186658 L973.176125,626.186658 C972.94791,626.186658 972.762904,625.994653 972.762904,625.757804 C972.762904,625.690041 972.778377,625.623242 972.808054,625.562883 Z" id="path-21"></path>
        <filter x="-81.2%" y="-93.8%" width="262.5%" height="262.5%" filterUnits="objectBoundingBox" id="filter-22">
            <feOffset dx="0" dy="-2" in="SourceAlpha" result="shadowOffsetOuter1"></feOffset>
            <feGaussianBlur stdDeviation="4" in="shadowOffsetOuter1" result="shadowBlurOuter1"></feGaussianBlur>
            <feColorMatrix values="0 0 0 0 0   0 0 0 0 0   0 0 0 0 0  0 0 0 0.5 0" type="matrix" in="shadowBlurOuter1"></feColorMatrix>
        </filter>
        <path d="M721.180009,696.070108 L728.624976,680.927907 C728.728704,680.716937 728.977583,680.63318 729.180864,680.740832 C729.256522,680.780899 729.318445,680.844189 729.358203,680.922087 L737.086712,696.064288 C737.193537,696.273587 737.11665,696.533133 736.91498,696.644 C736.855393,696.676758 736.788987,696.693884 736.721556,696.693884 L721.548081,696.693884 C721.319865,696.693884 721.13486,696.501879 721.13486,696.26503 C721.13486,696.197267 721.150332,696.130468 721.180009,696.070108 Z" id="path-23"></path>
        <filter x="-81.2%" y="-93.8%" width="262.5%" height="262.5%" filterUnits="objectBoundingBox" id="filter-24">
            <feOffset dx="0" dy="-2" in="SourceAlpha" result="shadowOffsetOuter1"></feOffset>
            <feGaussianBlur stdDeviation="4" in="shadowOffsetOuter1" result="shadowBlurOuter1"></feGaussianBlur>
            <feColorMatrix values="0 0 0 0 0   0 0 0 0 0   0 0 0 0 0  0 0 0 0.5 0" type="matrix" in="shadowBlurOuter1"></feColorMatrix>
        </filter>
        <path d="M774.371035,83.2247724 L780.885381,69.9753465 C780.976143,69.7907471 781.193912,69.7174603 781.371783,69.8116559 C781.437984,69.8467141 781.492166,69.9020928 781.526955,69.9702536 L788.2894,83.2196795 C788.382872,83.4028164 788.315596,83.6299191 788.139135,83.7269275 C788.086996,83.7555906 788.02889,83.7705759 787.969889,83.7705759 L774.693098,83.7705759 C774.493409,83.7705759 774.331529,83.602572 774.331529,83.3953287 C774.331529,83.3360358 774.345068,83.2775868 774.371035,83.2247724 Z" id="path-25"></path>
        <filter x="-92.9%" y="-107.1%" width="285.7%" height="285.7%" filterUnits="objectBoundingBox" id="filter-26">
            <feOffset dx="0" dy="-2" in="SourceAlpha" result="shadowOffsetOuter1"></feOffset>
            <feGaussianBlur stdDeviation="4" in="shadowOffsetOuter1" result="shadowBlurOuter1"></feGaussianBlur>
            <feColorMatrix values="0 0 0 0 0   0 0 0 0 0   0 0 0 0 0  0 0 0 0.5 0" type="matrix" in="shadowBlurOuter1"></feColorMatrix>
        </filter>
        <path d="M525.353312,365.359059 L530.471726,354.948795 C530.543039,354.803753 530.714144,354.74617 530.853899,354.820181 C530.905914,354.847727 530.948486,354.891239 530.97582,354.944794 L536.28917,365.355057 C536.362612,365.49895 536.309753,365.677388 536.171105,365.753609 C536.130138,365.77613 536.084484,365.787904 536.038125,365.787904 L525.606361,365.787904 C525.449463,365.787904 525.322272,365.655901 525.322272,365.493067 C525.322272,365.44648 525.332909,365.400556 525.353312,365.359059 Z" id="path-27"></path>
        <filter x="-118.2%" y="-136.4%" width="336.4%" height="336.4%" filterUnits="objectBoundingBox" id="filter-28">
            <feOffset dx="0" dy="-2" in="SourceAlpha" result="shadowOffsetOuter1"></feOffset>
            <feGaussianBlur stdDeviation="4" in="shadowOffsetOuter1" result="shadowBlurOuter1"></feGaussianBlur>
            <feColorMatrix values="0 0 0 0 0   0 0 0 0 0   0 0 0 0 0  0 0 0 0.5 0" type="matrix" in="shadowBlurOuter1"></feColorMatrix>
        </filter>
        <path d="M1333.95666,851.056992 L1339.54039,840.646729 C1339.61818,840.501687 1339.80484,840.444104 1339.9573,840.518115 C1340.01405,840.545661 1340.06049,840.589173 1340.09031,840.642728 L1345.88669,851.052991 C1345.96681,851.196884 1345.90914,851.375322 1345.75789,851.451543 C1345.7132,851.474064 1345.6634,851.485838 1345.61282,851.485838 L1334.23272,851.485838 C1334.06156,851.485838 1333.9228,851.353835 1333.9228,851.191001 C1333.9228,851.144414 1333.93441,851.098489 1333.95666,851.056992 Z" id="path-29"></path>
        <filter x="-108.3%" y="-136.4%" width="316.7%" height="336.4%" filterUnits="objectBoundingBox" id="filter-30">
            <feOffset dx="0" dy="-2" in="SourceAlpha" result="shadowOffsetOuter1"></feOffset>
            <feGaussianBlur stdDeviation="4" in="shadowOffsetOuter1" result="shadowBlurOuter1"></feGaussianBlur>
            <feColorMatrix values="0 0 0 0 0   0 0 0 0 0   0 0 0 0 0  0 0 0 0.5 0" type="matrix" in="shadowBlurOuter1"></feColorMatrix>
        </filter>
        <path d="M758.643731,1213.49193 L763.762145,1204.02805 C763.833458,1203.89619 764.004563,1203.84385 764.144318,1203.91113 C764.196333,1203.93617 764.238905,1203.97573 764.266239,1204.02441 L769.579589,1213.48829 C769.653031,1213.6191 769.600172,1213.78132 769.461524,1213.85061 C769.420557,1213.87108 769.374903,1213.88179 769.328544,1213.88179 L758.89678,1213.88179 C758.739882,1213.88179 758.612691,1213.76178 758.612691,1213.61375 C758.612691,1213.5714 758.623328,1213.52965 758.643731,1213.49193 Z" id="path-31"></path>
        <filter x="-118.2%" y="-150.0%" width="336.4%" height="360.0%" filterUnits="objectBoundingBox" id="filter-32">
            <feOffset dx="0" dy="-2" in="SourceAlpha" result="shadowOffsetOuter1"></feOffset>
            <feGaussianBlur stdDeviation="4" in="shadowOffsetOuter1" result="shadowBlurOuter1"></feGaussianBlur>
            <feColorMatrix values="0 0 0 0 0   0 0 0 0 0   0 0 0 0 0  0 0 0 0.5 0" type="matrix" in="shadowBlurOuter1"></feColorMatrix>
        </filter>
        <path d="M704.621606,554.775306 L708.8094,546.257818 C708.867747,546.139147 709.007742,546.092034 709.122087,546.152588 C709.164645,546.175125 709.199476,546.210726 709.221841,546.254544 L713.569127,554.772032 C713.629216,554.889763 713.585967,555.035757 713.472528,555.09812 C713.43901,555.116546 713.401656,555.126179 713.363726,555.126179 L704.828647,555.126179 C704.700275,555.126179 704.59621,555.018177 704.59621,554.884949 C704.59621,554.846832 704.604913,554.809258 704.621606,554.775306 Z" id="path-33"></path>
        <filter x="-144.4%" y="-166.7%" width="388.9%" height="388.9%" filterUnits="objectBoundingBox" id="filter-34">
            <feOffset dx="0" dy="-2" in="SourceAlpha" result="shadowOffsetOuter1"></feOffset>
            <feGaussianBlur stdDeviation="4" in="shadowOffsetOuter1" result="shadowBlurOuter1"></feGaussianBlur>
            <feColorMatrix values="0 0 0 0 0   0 0 0 0 0   0 0 0 0 0  0 0 0 0.5 0" type="matrix" in="shadowBlurOuter1"></feColorMatrix>
        </filter>
        <path d="M717.522473,298.617024 L723.571508,287.260374 C723.655787,287.102145 723.858002,287.039328 724.023167,287.120067 C724.084639,287.150117 724.134952,287.197585 724.167256,287.256008 L730.446669,298.612659 C730.533464,298.769633 730.470994,298.964293 730.307137,299.047443 C730.258722,299.072011 730.204767,299.084856 730.14998,299.084856 L717.821531,299.084856 C717.636106,299.084856 717.485789,298.940853 717.485789,298.763215 C717.485789,298.712393 717.49836,298.662294 717.522473,298.617024 Z" id="path-35"></path>
        <filter x="-100.0%" y="-125.0%" width="300.0%" height="316.7%" filterUnits="objectBoundingBox" id="filter-36">
            <feOffset dx="0" dy="-2" in="SourceAlpha" result="shadowOffsetOuter1"></feOffset>
            <feGaussianBlur stdDeviation="4" in="shadowOffsetOuter1" result="shadowBlurOuter1"></feGaussianBlur>
            <feColorMatrix values="0 0 0 0 0   0 0 0 0 0   0 0 0 0 0  0 0 0 0.5 0" type="matrix" in="shadowBlurOuter1"></feColorMatrix>
        </filter>
        <path d="M229.377367,723.891026 L233.565161,715.373538 C233.623508,715.254867 233.763503,715.207754 233.877848,715.268309 C233.920406,715.290846 233.955237,715.326447 233.977602,715.370264 L238.324888,723.887752 C238.384977,724.005483 238.341728,724.151478 238.228289,724.21384 C238.194771,724.232267 238.157417,724.2419 238.119487,724.2419 L229.584408,724.2419 C229.456036,724.2419 229.351971,724.133897 229.351971,724.00067 C229.351971,723.962553 229.360674,723.924978 229.377367,723.891026 Z" id="path-37"></path>
        <filter x="-144.4%" y="-166.7%" width="388.9%" height="388.9%" filterUnits="objectBoundingBox" id="filter-38">
            <feOffset dx="0" dy="-2" in="SourceAlpha" result="shadowOffsetOuter1"></feOffset>
            <feGaussianBlur stdDeviation="4" in="shadowOffsetOuter1" result="shadowBlurOuter1"></feGaussianBlur>
            <feColorMatrix values="0 0 0 0 0   0 0 0 0 0   0 0 0 0 0  0 0 0 0.5 0" type="matrix" in="shadowBlurOuter1"></feColorMatrix>
        </filter>
        <path d="M1656.62758,71.3313938 L1663.14192,59.0283555 C1663.23268,58.8569417 1663.45045,58.7888897 1663.62832,58.8763571 C1663.69452,58.9089111 1663.74871,58.9603342 1663.7835,59.0236263 L1670.54594,71.3266647 C1670.63941,71.4967204 1670.57214,71.7076015 1670.39568,71.7976807 C1670.34354,71.8242964 1670.28543,71.8382113 1670.22643,71.8382113 L1656.94964,71.8382113 C1656.74995,71.8382113 1656.58807,71.6822077 1656.58807,71.4897675 C1656.58807,71.4347099 1656.60161,71.3804358 1656.62758,71.3313938 Z" id="path-39"></path>
        <filter x="-92.9%" y="-115.4%" width="285.7%" height="300.0%" filterUnits="objectBoundingBox" id="filter-40">
            <feOffset dx="0" dy="-2" in="SourceAlpha" result="shadowOffsetOuter1"></feOffset>
            <feGaussianBlur stdDeviation="4" in="shadowOffsetOuter1" result="shadowBlurOuter1"></feGaussianBlur>
            <feColorMatrix values="0 0 0 0 0   0 0 0 0 0   0 0 0 0 0  0 0 0 0.5 0" type="matrix" in="shadowBlurOuter1"></feColorMatrix>
        </filter>
        <path d="M468.361128,268.07098 L473.014232,259.553492 C473.079062,259.434821 473.234612,259.387708 473.361662,259.448262 C473.408948,259.470799 473.44765,259.5064 473.4725,259.550218 L478.302817,268.067706 C478.369583,268.185437 478.321529,268.331431 478.195485,268.393794 C478.158243,268.41222 478.116739,268.421853 478.074595,268.421853 L468.591173,268.421853 C468.448538,268.421853 468.33291,268.313851 468.33291,268.180623 C468.33291,268.142506 468.34258,268.104932 468.361128,268.07098 Z" id="path-41"></path>
        <filter x="-130.0%" y="-166.7%" width="360.0%" height="388.9%" filterUnits="objectBoundingBox" id="filter-42">
            <feOffset dx="0" dy="-2" in="SourceAlpha" result="shadowOffsetOuter1"></feOffset>
            <feGaussianBlur stdDeviation="4" in="shadowOffsetOuter1" result="shadowBlurOuter1"></feGaussianBlur>
            <feColorMatrix values="0 0 0 0 0   0 0 0 0 0   0 0 0 0 0  0 0 0 0.5 0" type="matrix" in="shadowBlurOuter1"></feColorMatrix>
        </filter>
        <path d="M1415.01953,593.194369 C1416.02044,590.224498 1418.0937,588.739563 1421.2393,588.739563 C1425.95769,588.739563 1426.63165,594.808002 1431.64264,594.808002 C1436.65363,594.808002 1436.37712,588.4181 1442.54207,588.4181 C1448.70701,588.4181 1449.7369,593.656275 1449.7369,593.656275 C1450.25584,594.9431 1449.12468,596.010971 1448.28624,594.808002 C1447.44779,593.605034 1447.72915,590.518311 1442.54207,590.518311 C1437.35498,590.518311 1438.91171,597.4181 1431.64264,597.4181 C1424.37357,597.4181 1425.13551,590.97304 1420.74056,590.97304 C1416.34561,590.97304 1417.91438,596.316442 1415.66003,595.44791 C1414.90129,595.155592 1414.68779,594.404412 1415.01953,593.194369 Z" id="path-43"></path>
        <filter x="-37.1%" y="-166.7%" width="174.3%" height="388.9%" filterUnits="objectBoundingBox" id="filter-44">
            <feOffset dx="0" dy="-2" in="SourceAlpha" result="shadowOffsetOuter1"></feOffset>
            <feGaussianBlur stdDeviation="4" in="shadowOffsetOuter1" result="shadowBlurOuter1"></feGaussianBlur>
            <feColorMatrix values="0 0 0 0 0   0 0 0 0 0   0 0 0 0 0  0 0 0 0.5 0" type="matrix" in="shadowBlurOuter1"></feColorMatrix>
        </filter>
        <path d="M1222.0457,78.8986493 C1223.41838,74.6088365 1226.2617,72.46393 1230.57566,72.46393 C1237.0466,72.46393 1237.97089,81.2294538 1244.84311,81.2294538 C1251.71532,81.2294538 1251.33611,71.9995942 1259.79089,71.9995942 C1268.24567,71.9995942 1269.65808,79.5658469 1269.65808,79.5658469 C1270.36978,81.4245942 1268.81847,82.9670744 1267.66861,81.2294538 C1266.51874,79.4918332 1266.90461,75.0332327 1259.79089,75.0332327 C1252.67717,75.0332327 1254.81212,84.9995942 1244.84311,84.9995942 C1234.87409,84.9995942 1235.91904,75.690064 1229.89168,75.690064 C1223.86432,75.690064 1226.01577,83.4083102 1222.92409,82.153764 C1221.88354,81.7315277 1221.59074,80.6464894 1222.0457,78.8986493 Z" id="path-45"></path>
        <filter x="-27.1%" y="-115.4%" width="154.2%" height="300.0%" filterUnits="objectBoundingBox" id="filter-46">
            <feOffset dx="0" dy="-2" in="SourceAlpha" result="shadowOffsetOuter1"></feOffset>
            <feGaussianBlur stdDeviation="4" in="shadowOffsetOuter1" result="shadowBlurOuter1"></feGaussianBlur>
            <feColorMatrix values="0 0 0 0 0   0 0 0 0 0   0 0 0 0 0  0 0 0 0.5 0" type="matrix" in="shadowBlurOuter1"></feColorMatrix>
        </filter>
        <path d="M501.020246,884.790953 C502.021159,881.821083 504.094414,880.336147 507.24001,880.336147 C511.958403,880.336147 512.632367,886.404587 517.643357,886.404587 C522.654346,886.404587 522.377838,880.014684 528.542781,880.014684 C534.707725,880.014684 535.73761,885.252859 535.73761,885.252859 C536.256554,886.539684 535.125396,887.607555 534.28695,886.404587 C533.448504,885.201619 533.729869,882.114895 528.542781,882.114895 C523.355694,882.114895 524.912429,889.014684 517.643357,889.014684 C510.374284,889.014684 511.136226,882.569625 506.741275,882.569625 C502.346324,882.569625 503.915091,887.913026 501.660739,887.044494 C500.902004,886.752176 500.688506,886.000996 501.020246,884.790953 Z" id="path-47"></path>
        <filter x="-37.1%" y="-166.7%" width="174.3%" height="388.9%" filterUnits="objectBoundingBox" id="filter-48">
            <feOffset dx="0" dy="-2" in="SourceAlpha" result="shadowOffsetOuter1"></feOffset>
            <feGaussianBlur stdDeviation="4" in="shadowOffsetOuter1" result="shadowBlurOuter1"></feGaussianBlur>
            <feColorMatrix values="0 0 0 0 0   0 0 0 0 0   0 0 0 0 0  0 0 0 0.5 0" type="matrix" in="shadowBlurOuter1"></feColorMatrix>
        </filter>
        <path d="M473.318327,571.703351 C474.54802,568.07351 477.095162,566.258589 480.959751,566.258589 C486.756635,566.258589 487.584647,573.67557 493.741006,573.67557 C499.897364,573.67557 499.557655,565.865689 507.131728,565.865689 C514.705801,565.865689 515.971089,572.267903 515.971089,572.267903 C516.608648,573.840689 515.21894,575.145865 514.188849,573.67557 C513.158758,572.205276 513.504435,568.432614 507.131728,568.432614 C500.759021,568.432614 502.67158,576.865689 493.741006,576.865689 C484.810431,576.865689 485.746531,568.988394 480.347019,568.988394 C474.947508,568.988394 476.87485,575.519218 474.105219,574.457679 C473.173058,574.100402 472.910761,573.182293 473.318327,571.703351 Z" id="path-49"></path>
        <filter x="-30.2%" y="-136.4%" width="160.5%" height="336.4%" filterUnits="objectBoundingBox" id="filter-50">
            <feOffset dx="0" dy="-2" in="SourceAlpha" result="shadowOffsetOuter1"></feOffset>
            <feGaussianBlur stdDeviation="4" in="shadowOffsetOuter1" result="shadowBlurOuter1"></feGaussianBlur>
            <feColorMatrix values="0 0 0 0 0   0 0 0 0 0   0 0 0 0 0  0 0 0 0.5 0" type="matrix" in="shadowBlurOuter1"></feColorMatrix>
        </filter>
        <path d="M326.776061,600.991057 C328.148742,596.701245 330.992062,594.556338 335.306022,594.556338 C341.776962,594.556338 342.701256,603.321862 349.57347,603.321862 C356.445684,603.321862 356.066473,594.092002 364.521252,594.092002 C372.976032,594.092002 374.388446,601.658255 374.388446,601.658255 C375.10014,603.517002 373.548838,605.059483 372.398969,603.321862 C371.249101,601.584241 371.634972,597.125641 364.521252,597.125641 C357.407533,597.125641 359.542483,607.092002 349.57347,607.092002 C339.604456,607.092002 340.649405,597.782472 334.622043,597.782472 C328.594682,597.782472 330.746133,605.500718 327.654452,604.246172 C326.6139,603.823936 326.321103,602.738898 326.776061,600.991057 Z" id="path-51"></path>
        <filter x="-27.1%" y="-115.4%" width="154.2%" height="300.0%" filterUnits="objectBoundingBox" id="filter-52">
            <feOffset dx="0" dy="-2" in="SourceAlpha" result="shadowOffsetOuter1"></feOffset>
            <feGaussianBlur stdDeviation="4" in="shadowOffsetOuter1" result="shadowBlurOuter1"></feGaussianBlur>
            <feColorMatrix values="0 0 0 0 0   0 0 0 0 0   0 0 0 0 0  0 0 0 0.5 0" type="matrix" in="shadowBlurOuter1"></feColorMatrix>
        </filter>
        <path d="M176.34212,706.616549 C177.343033,703.646679 179.416288,702.161744 182.561884,702.161744 C187.280277,702.161744 187.954241,708.230183 192.965231,708.230183 C197.97622,708.230183 197.699712,701.84028 203.864655,701.84028 C210.029599,701.84028 211.059484,707.078455 211.059484,707.078455 C211.578428,708.36528 210.44727,709.433151 209.608824,708.230183 C208.770378,707.027215 209.051743,703.940492 203.864655,703.940492 C198.677568,703.940492 200.234303,710.84028 192.965231,710.84028 C185.696158,710.84028 186.4581,704.395221 182.063149,704.395221 C177.668198,704.395221 179.236965,709.738622 176.982613,708.87009 C176.223878,708.577773 176.01038,707.826592 176.34212,706.616549 Z" id="path-53"></path>
        <filter x="-37.1%" y="-166.7%" width="174.3%" height="388.9%" filterUnits="objectBoundingBox" id="filter-54">
            <feOffset dx="0" dy="-2" in="SourceAlpha" result="shadowOffsetOuter1"></feOffset>
            <feGaussianBlur stdDeviation="4" in="shadowOffsetOuter1" result="shadowBlurOuter1"></feGaussianBlur>
            <feColorMatrix values="0 0 0 0 0   0 0 0 0 0   0 0 0 0 0  0 0 0 0.5 0" type="matrix" in="shadowBlurOuter1"></feColorMatrix>
        </filter>
        <path d="M16.8315547,565.333986 C18.2614305,561.044173 21.2232226,558.899267 25.716931,558.899267 C32.4574936,558.899267 33.420299,567.664791 40.5788553,567.664791 C47.7374116,567.664791 47.3424006,558.434931 56.1494624,558.434931 C64.9565241,558.434931 66.4277891,566.001184 66.4277891,566.001184 C67.1691368,567.859931 65.5531972,569.402411 64.3554174,567.664791 C63.1576376,565.92717 63.5595869,561.46857 56.1494624,561.46857 C48.7393378,561.46857 50.9632445,571.434931 40.5788553,571.434931 C30.1944661,571.434931 31.2829542,562.125401 25.0044528,562.125401 C18.7259515,562.125401 20.9670467,569.843647 17.7465451,568.589101 C16.6626371,568.166865 16.3576403,567.081826 16.8315547,565.333986 Z" id="path-55"></path>
        <filter x="-26.0%" y="-115.4%" width="152.0%" height="300.0%" filterUnits="objectBoundingBox" id="filter-56">
            <feOffset dx="0" dy="-2" in="SourceAlpha" result="shadowOffsetOuter1"></feOffset>
            <feGaussianBlur stdDeviation="4" in="shadowOffsetOuter1" result="shadowBlurOuter1"></feGaussianBlur>
            <feColorMatrix values="0 0 0 0 0   0 0 0 0 0   0 0 0 0 0  0 0 0 0.5 0" type="matrix" in="shadowBlurOuter1"></feColorMatrix>
        </filter>
        <path d="M1656.63221,784.40446 C1657.77611,781.104604 1660.14555,779.454676 1663.74051,779.454676 C1669.13296,779.454676 1669.90321,786.197387 1675.63005,786.197387 C1681.3569,786.197387 1681.04089,779.097495 1688.08654,779.097495 C1695.13219,779.097495 1696.3092,784.917689 1696.3092,784.917689 C1696.90228,786.347495 1695.60953,787.534018 1694.6513,786.197387 C1693.69308,784.860755 1694.01464,781.431063 1688.08654,781.431063 C1682.15844,781.431063 1683.93757,789.097495 1675.63005,789.097495 C1667.32254,789.097495 1668.19333,781.936317 1663.17053,781.936317 C1658.14773,781.936317 1659.94061,787.87343 1657.36421,786.908394 C1656.49708,786.583597 1656.25308,785.748952 1656.63221,784.40446 Z" id="path-57"></path>
        <filter x="-32.5%" y="-150.0%" width="165.0%" height="360.0%" filterUnits="objectBoundingBox" id="filter-58">
            <feOffset dx="0" dy="-2" in="SourceAlpha" result="shadowOffsetOuter1"></feOffset>
            <feGaussianBlur stdDeviation="4" in="shadowOffsetOuter1" result="shadowBlurOuter1"></feGaussianBlur>
            <feColorMatrix values="0 0 0 0 0   0 0 0 0 0   0 0 0 0 0  0 0 0 0.5 0" type="matrix" in="shadowBlurOuter1"></feColorMatrix>
        </filter>
        <path d="M1372.32692,181.617093 C1373.35643,178.647222 1375.48892,177.162287 1378.72439,177.162287 C1383.57759,177.162287 1384.27081,183.230727 1389.42497,183.230727 C1394.57913,183.230727 1394.29473,176.840824 1400.63581,176.840824 C1406.9769,176.840824 1408.03621,182.078999 1408.03621,182.078999 C1408.56998,183.365824 1407.4065,184.433695 1406.5441,183.230727 C1405.6817,182.027759 1405.9711,178.941035 1400.63581,178.941035 C1395.30052,178.941035 1396.90173,185.840824 1389.42497,185.840824 C1381.94821,185.840824 1382.73192,179.395765 1378.2114,179.395765 C1373.69088,179.395765 1375.30447,184.739166 1372.98571,183.870634 C1372.2053,183.578316 1371.9857,182.827136 1372.32692,181.617093 Z" id="path-59"></path>
        <filter x="-36.1%" y="-166.7%" width="172.2%" height="388.9%" filterUnits="objectBoundingBox" id="filter-60">
            <feOffset dx="0" dy="-2" in="SourceAlpha" result="shadowOffsetOuter1"></feOffset>
            <feGaussianBlur stdDeviation="4" in="shadowOffsetOuter1" result="shadowBlurOuter1"></feGaussianBlur>
            <feColorMatrix values="0 0 0 0 0   0 0 0 0 0   0 0 0 0 0  0 0 0 0.5 0" type="matrix" in="shadowBlurOuter1"></feColorMatrix>
        </filter>
        <path d="M1030.46677,400.980167 C1031.66786,397.350325 1034.15577,395.535405 1037.93048,395.535405 C1043.59256,395.535405 1044.40131,402.952386 1050.4145,402.952386 C1056.42769,402.952386 1056.09588,395.142505 1063.49381,395.142505 C1070.89174,395.142505 1072.12761,401.544719 1072.12761,401.544719 C1072.75034,403.117505 1071.39295,404.422681 1070.38681,402.952386 C1069.38068,401.482092 1069.71832,397.70943 1063.49381,397.70943 C1057.26931,397.70943 1059.13739,406.142505 1050.4145,406.142505 C1041.69161,406.142505 1042.60594,398.26521 1037.332,398.26521 C1032.05806,398.26521 1033.94058,404.796034 1031.23536,403.734495 C1030.32488,403.377218 1030.06868,402.459109 1030.46677,400.980167 Z" id="path-61"></path>
        <filter x="-31.0%" y="-136.4%" width="161.9%" height="336.4%" filterUnits="objectBoundingBox" id="filter-62">
            <feOffset dx="0" dy="-2" in="SourceAlpha" result="shadowOffsetOuter1"></feOffset>
            <feGaussianBlur stdDeviation="4" in="shadowOffsetOuter1" result="shadowBlurOuter1"></feGaussianBlur>
            <feColorMatrix values="0 0 0 0 0   0 0 0 0 0   0 0 0 0 0  0 0 0 0.5 0" type="matrix" in="shadowBlurOuter1"></feColorMatrix>
        </filter>
        <path d="M633.572686,1126.79946 C634.344819,1124.48956 635.944187,1123.33461 638.37079,1123.33461 C642.010693,1123.33461 642.530608,1128.0545 646.396229,1128.0545 C650.261849,1128.0545 650.048543,1123.08458 654.804357,1123.08458 C659.56017,1123.08458 660.354653,1127.15872 660.354653,1127.15872 C660.754981,1128.15958 659.882373,1128.99015 659.235572,1128.0545 C658.588771,1127.11886 658.805824,1124.71808 654.804357,1124.71808 C650.802889,1124.71808 652.003799,1130.08458 646.396229,1130.08458 C640.788659,1130.08458 641.376442,1125.07176 637.986051,1125.07176 C634.595661,1125.07176 635.805852,1129.22774 634.066781,1128.55221 C633.481471,1128.32485 633.316773,1127.7406 633.572686,1126.79946 Z" id="path-63"></path>
        <filter x="-48.1%" y="-214.3%" width="196.3%" height="471.4%" filterUnits="objectBoundingBox" id="filter-64">
            <feOffset dx="0" dy="-2" in="SourceAlpha" result="shadowOffsetOuter1"></feOffset>
            <feGaussianBlur stdDeviation="4" in="shadowOffsetOuter1" result="shadowBlurOuter1"></feGaussianBlur>
            <feColorMatrix values="0 0 0 0 0   0 0 0 0 0   0 0 0 0 0  0 0 0 0.5 0" type="matrix" in="shadowBlurOuter1"></feColorMatrix>
        </filter>
        <path d="M40.8153795,930.424395 C41.7590975,927.78451 43.7138803,926.464568 46.6797278,926.464568 C51.1284991,926.464568 51.7639507,931.858736 56.4885979,931.858736 C61.213245,931.858736 60.9525377,926.178823 66.7651985,926.178823 C72.5778593,926.178823 73.5488941,930.834978 73.5488941,930.834978 C74.0381836,931.978823 72.9716635,932.928041 72.1811288,931.858736 C71.3905942,930.789431 71.6558807,928.045677 66.7651985,928.045677 C61.8745163,928.045677 63.3422947,934.178823 56.4885979,934.178823 C49.634901,934.178823 50.3533031,928.449881 46.2094922,928.449881 C42.0656813,928.449881 43.5448042,933.199571 41.4192731,932.427543 C40.7038938,932.167705 40.5025959,931.499989 40.8153795,930.424395 Z" id="path-65"></path>
        <filter x="-39.4%" y="-187.5%" width="178.8%" height="425.0%" filterUnits="objectBoundingBox" id="filter-66">
            <feOffset dx="0" dy="-2" in="SourceAlpha" result="shadowOffsetOuter1"></feOffset>
            <feGaussianBlur stdDeviation="4" in="shadowOffsetOuter1" result="shadowBlurOuter1"></feGaussianBlur>
            <feColorMatrix values="0 0 0 0 0   0 0 0 0 0   0 0 0 0 0  0 0 0 0.5 0" type="matrix" in="shadowBlurOuter1"></feColorMatrix>
        </filter>
        <path d="M151.636751,245.24598 C152.780652,241.946124 155.150085,240.296196 158.745052,240.296196 C164.137502,240.296196 164.907746,247.038907 170.634591,247.038907 C176.361436,247.038907 176.045428,239.939015 183.091077,239.939015 C190.136727,239.939015 191.313738,245.759209 191.313738,245.759209 C191.906817,247.189015 190.614065,248.375538 189.655841,247.038907 C188.697617,245.702276 189.019177,242.272583 183.091077,242.272583 C177.162977,242.272583 178.942103,249.939015 170.634591,249.939015 C162.32708,249.939015 163.197871,242.777838 158.175069,242.777838 C153.152268,242.777838 154.945145,248.71495 152.368743,247.749915 C151.501617,247.425118 151.257619,246.590473 151.636751,245.24598 Z" id="path-67"></path>
        <filter x="-32.5%" y="-150.0%" width="165.0%" height="360.0%" filterUnits="objectBoundingBox" id="filter-68">
            <feOffset dx="0" dy="-2" in="SourceAlpha" result="shadowOffsetOuter1"></feOffset>
            <feGaussianBlur stdDeviation="4" in="shadowOffsetOuter1" result="shadowBlurOuter1"></feGaussianBlur>
            <feColorMatrix values="0 0 0 0 0   0 0 0 0 0   0 0 0 0 0  0 0 0 0.5 0" type="matrix" in="shadowBlurOuter1"></feColorMatrix>
        </filter>
        <path d="M1198.4439,1048.06448 C1199.53061,1044.76462 1201.78157,1043.11469 1205.19679,1043.11469 C1210.31962,1043.11469 1211.05135,1049.8574 1216.49185,1049.8574 C1221.93236,1049.8574 1221.63215,1042.75751 1228.32551,1042.75751 C1235.01888,1042.75751 1236.13704,1048.57771 1236.13704,1048.57771 C1236.70047,1050.00751 1235.47235,1051.19403 1234.56204,1049.8574 C1233.65173,1048.52077 1233.95721,1045.09108 1228.32551,1045.09108 C1222.69382,1045.09108 1224.38399,1052.75751 1216.49185,1052.75751 C1208.59972,1052.75751 1209.42697,1045.59633 1204.65531,1045.59633 C1199.88365,1045.59633 1201.58688,1051.53345 1199.1393,1050.56841 C1198.31553,1050.24361 1198.08373,1049.40897 1198.4439,1048.06448 Z" id="path-69"></path>
        <filter x="-34.2%" y="-150.0%" width="168.4%" height="360.0%" filterUnits="objectBoundingBox" id="filter-70">
            <feOffset dx="0" dy="-2" in="SourceAlpha" result="shadowOffsetOuter1"></feOffset>
            <feGaussianBlur stdDeviation="4" in="shadowOffsetOuter1" result="shadowBlurOuter1"></feGaussianBlur>
            <feColorMatrix values="0 0 0 0 0   0 0 0 0 0   0 0 0 0 0  0 0 0 0.5 0" type="matrix" in="shadowBlurOuter1"></feColorMatrix>
        </filter>
        <path d="M959.505914,101.793041 C960.93579,97.5032278 963.897582,95.3583214 968.39129,95.3583214 C975.131853,95.3583214 976.094658,104.123845 983.253215,104.123845 C990.411771,104.123845 990.01676,94.8939855 998.823822,94.8939855 C1007.63088,94.8939855 1009.10215,102.460238 1009.10215,102.460238 C1009.8435,104.318986 1008.22756,105.861466 1007.02978,104.123845 C1005.832,102.386225 1006.23395,97.927624 998.823822,97.927624 C991.413697,97.927624 993.637604,107.893986 983.253215,107.893986 C972.868825,107.893986 973.957313,98.5844553 967.678812,98.5844553 C961.400311,98.5844553 963.641406,106.302702 960.420904,105.048155 C959.336996,104.625919 959.031999,103.540881 959.505914,101.793041 Z" id="path-71"></path>
        <filter x="-26.0%" y="-115.4%" width="152.0%" height="300.0%" filterUnits="objectBoundingBox" id="filter-72">
            <feOffset dx="0" dy="-2" in="SourceAlpha" result="shadowOffsetOuter1"></feOffset>
            <feGaussianBlur stdDeviation="4" in="shadowOffsetOuter1" result="shadowBlurOuter1"></feGaussianBlur>
            <feColorMatrix values="0 0 0 0 0   0 0 0 0 0   0 0 0 0 0  0 0 0 0.5 0" type="matrix" in="shadowBlurOuter1"></feColorMatrix>
        </filter>
        <path d="M1319.52737,1034.32078 C1320.49968,1031.35091 1322.5137,1029.86598 1325.56942,1029.86598 C1330.15301,1029.86598 1330.80771,1035.93441 1335.67553,1035.93441 C1340.54335,1035.93441 1340.27474,1029.54451 1346.26355,1029.54451 C1352.25235,1029.54451 1353.25281,1034.78269 1353.25281,1034.78269 C1353.75692,1036.06951 1352.65809,1037.13738 1351.8436,1035.93441 C1351.02911,1034.73145 1351.30243,1031.64472 1346.26355,1031.64472 C1341.22466,1031.64472 1342.73692,1038.54451 1335.67553,1038.54451 C1328.61415,1038.54451 1329.35432,1032.09945 1325.08494,1032.09945 C1320.81556,1032.09945 1322.3395,1037.44285 1320.14956,1036.57432 C1319.4125,1036.282 1319.20511,1035.53082 1319.52737,1034.32078 Z" id="path-73"></path>
        <filter x="-38.2%" y="-166.7%" width="176.5%" height="388.9%" filterUnits="objectBoundingBox" id="filter-74">
            <feOffset dx="0" dy="-2" in="SourceAlpha" result="shadowOffsetOuter1"></feOffset>
            <feGaussianBlur stdDeviation="4" in="shadowOffsetOuter1" result="shadowBlurOuter1"></feGaussianBlur>
            <feColorMatrix values="0 0 0 0 0   0 0 0 0 0   0 0 0 0 0  0 0 0 0.5 0" type="matrix" in="shadowBlurOuter1"></feColorMatrix>
        </filter>
        <path d="M577.138147,1168.74054 C578.02467,1166.10066 579.860981,1164.78072 582.64708,1164.78072 C586.826229,1164.78072 587.423168,1170.17488 591.861473,1170.17488 C596.299778,1170.17488 596.054871,1164.49497 601.515249,1164.49497 C606.975628,1164.49497 607.887812,1169.15113 607.887812,1169.15113 C608.347448,1170.29497 607.345565,1171.24419 606.602942,1170.17488 C605.860318,1169.10558 606.109527,1166.36183 601.515249,1166.36183 C596.920972,1166.36183 598.299794,1172.49497 591.861473,1172.49497 C585.423152,1172.49497 586.098014,1166.76603 582.205344,1166.76603 C578.312673,1166.76603 579.702152,1171.51572 577.705441,1170.74369 C577.033418,1170.48385 576.84432,1169.81614 577.138147,1168.74054 Z" id="path-75"></path>
        <filter x="-41.9%" y="-187.5%" width="183.9%" height="425.0%" filterUnits="objectBoundingBox" id="filter-76">
            <feOffset dx="0" dy="-2" in="SourceAlpha" result="shadowOffsetOuter1"></feOffset>
            <feGaussianBlur stdDeviation="4" in="shadowOffsetOuter1" result="shadowBlurOuter1"></feGaussianBlur>
            <feColorMatrix values="0 0 0 0 0   0 0 0 0 0   0 0 0 0 0  0 0 0 0.5 0" type="matrix" in="shadowBlurOuter1"></feColorMatrix>
        </filter>
        <path d="M383.398601,951.682813 C384.227929,949.372914 385.945769,948.217964 388.55212,948.217964 C392.461646,948.217964 393.020073,952.937862 397.172036,952.937862 C401.323998,952.937862 401.094892,947.967937 406.202988,947.967937 C411.311084,947.967937 412.164417,952.042073 412.164417,952.042073 C412.594399,953.042937 411.657154,953.873504 410.962442,952.937862 C410.267729,952.00222 410.50086,949.601435 406.202988,949.601435 C401.905116,949.601435 403.194981,954.967937 397.172036,954.967937 C391.14909,954.967937 391.780413,949.955113 388.138882,949.955113 C384.497351,949.955113 385.797187,954.111092 383.929296,953.435567 C383.300629,953.208209 383.123731,952.623958 383.398601,951.682813 Z" id="path-77"></path>
        <filter x="-44.8%" y="-214.3%" width="189.7%" height="471.4%" filterUnits="objectBoundingBox" id="filter-78">
            <feOffset dx="0" dy="-2" in="SourceAlpha" result="shadowOffsetOuter1"></feOffset>
            <feGaussianBlur stdDeviation="4" in="shadowOffsetOuter1" result="shadowBlurOuter1"></feGaussianBlur>
            <feColorMatrix values="0 0 0 0 0   0 0 0 0 0   0 0 0 0 0  0 0 0 0.5 0" type="matrix" in="shadowBlurOuter1"></feColorMatrix>
        </filter>
        <path d="M-10.8864752,444.677727 C-9.97135467,442.037842 -8.07580773,440.7179 -5.19983436,440.7179 C-0.885874313,440.7179 -0.269678827,446.112068 4.3117972,446.112068 C8.89327323,446.112068 8.64046617,440.432155 14.2769857,440.432155 C19.9135053,440.432155 20.8551148,445.08831 20.8551148,445.08831 C21.3295774,446.232155 20.295376,447.181373 19.5287969,446.112068 C18.7622179,445.042763 19.0194654,442.299009 14.2769857,442.299009 C9.53450601,442.299009 10.9578063,448.432155 4.3117972,448.432155 C-2.3342119,448.432155 -1.63757952,442.703213 -5.6558204,442.703213 C-9.67406127,442.703213 -8.23976029,447.452903 -10.3008813,446.680875 C-10.9945825,446.421037 -11.1897804,445.753321 -10.8864752,444.677727 Z" id="path-79"></path>
        <filter x="-40.6%" y="-187.5%" width="181.2%" height="425.0%" filterUnits="objectBoundingBox" id="filter-80">
            <feOffset dx="0" dy="-2" in="SourceAlpha" result="shadowOffsetOuter1"></feOffset>
            <feGaussianBlur stdDeviation="4" in="shadowOffsetOuter1" result="shadowBlurOuter1"></feGaussianBlur>
            <feColorMatrix values="0 0 0 0 0   0 0 0 0 0   0 0 0 0 0  0 0 0 0.5 0" type="matrix" in="shadowBlurOuter1"></feColorMatrix>
        </filter>
        <path d="M6.89891403,13.7450711 C7.81403454,11.1051863 9.70958148,9.78524389 12.5855549,9.78524389 C16.8995149,9.78524389 17.5157104,15.1794124 22.0971864,15.1794124 C26.6786624,15.1794124 26.4258554,9.49949875 32.0623749,9.49949875 C37.6988945,9.49949875 38.640504,14.1556543 38.640504,14.1556543 C39.1149666,15.2994988 38.0807652,16.2487173 37.3141862,15.1794124 C36.5476071,14.1101074 36.8048546,11.3663532 32.0623749,11.3663532 C27.3198952,11.3663532 28.7431955,17.4994988 22.0971864,17.4994988 C15.4511773,17.4994988 16.1478097,11.7705571 12.1295688,11.7705571 C8.11132794,11.7705571 9.54562892,16.5202471 7.48450787,15.7482186 C6.79080673,15.4883809 6.59560878,14.8206651 6.89891403,13.7450711 Z" id="path-81"></path>
        <filter x="-40.6%" y="-187.5%" width="181.2%" height="425.0%" filterUnits="objectBoundingBox" id="filter-82">
            <feOffset dx="0" dy="-2" in="SourceAlpha" result="shadowOffsetOuter1"></feOffset>
            <feGaussianBlur stdDeviation="4" in="shadowOffsetOuter1" result="shadowBlurOuter1"></feGaussianBlur>
            <feColorMatrix values="0 0 0 0 0   0 0 0 0 0   0 0 0 0 0  0 0 0 0.5 0" type="matrix" in="shadowBlurOuter1"></feColorMatrix>
        </filter>
        <path d="M1155.28085,549.729804 C1156.48194,546.099963 1158.96985,544.285042 1162.74457,544.285042 C1168.40664,544.285042 1169.21539,551.702024 1175.22858,551.702024 C1181.24177,551.702024 1180.90996,543.892143 1188.30789,543.892143 C1195.70582,543.892143 1196.94169,550.294356 1196.94169,550.294356 C1197.56442,551.867143 1196.20703,553.172318 1195.20089,551.702024 C1194.19476,550.231729 1194.5324,546.459067 1188.30789,546.459067 C1182.08339,546.459067 1183.95147,554.892143 1175.22858,554.892143 C1166.50569,554.892143 1167.42002,547.014848 1162.14608,547.014848 C1156.87214,547.014848 1158.75466,553.545671 1156.04944,552.484132 C1155.13896,552.126855 1154.88276,551.208746 1155.28085,549.729804 Z" id="path-83"></path>
        <filter x="-31.0%" y="-136.4%" width="161.9%" height="336.4%" filterUnits="objectBoundingBox" id="filter-84">
            <feOffset dx="0" dy="-2" in="SourceAlpha" result="shadowOffsetOuter1"></feOffset>
            <feGaussianBlur stdDeviation="4" in="shadowOffsetOuter1" result="shadowBlurOuter1"></feGaussianBlur>
            <feColorMatrix values="0 0 0 0 0   0 0 0 0 0   0 0 0 0 0  0 0 0 0.5 0" type="matrix" in="shadowBlurOuter1"></feColorMatrix>
        </filter>
        <path d="M757.148942,357.183947 C758.321441,353.554106 760.75011,351.739185 764.434951,351.739185 C769.962212,351.739185 770.751713,359.156166 776.621729,359.156166 C782.491745,359.156166 782.167836,351.346285 789.389627,351.346285 C796.611417,351.346285 797.817855,357.748499 797.817855,357.748499 C798.42576,359.321285 797.100689,360.626461 796.11851,359.156166 C795.13633,357.685872 795.465929,353.91321 789.389627,353.91321 C783.313325,353.91321 785.136928,362.346285 776.621729,362.346285 C768.10653,362.346285 768.99909,354.46899 763.850719,354.46899 C758.702348,354.46899 760.540046,360.999814 757.899234,359.938275 C757.01043,359.580998 756.760333,358.662889 757.148942,357.183947 Z" id="path-85"></path>
        <filter x="-31.7%" y="-136.4%" width="163.4%" height="336.4%" filterUnits="objectBoundingBox" id="filter-86">
            <feOffset dx="0" dy="-2" in="SourceAlpha" result="shadowOffsetOuter1"></feOffset>
            <feGaussianBlur stdDeviation="4" in="shadowOffsetOuter1" result="shadowBlurOuter1"></feGaussianBlur>
            <feColorMatrix values="0 0 0 0 0   0 0 0 0 0   0 0 0 0 0  0 0 0 0.5 0" type="matrix" in="shadowBlurOuter1"></feColorMatrix>
        </filter>
        <path d="M506.906263,685.468266 C507.992969,682.16841 510.243931,680.518482 513.659149,680.518482 C518.781977,680.518482 519.513709,687.261192 524.954212,687.261192 C530.394715,687.261192 530.094506,680.1613 536.787873,680.1613 C543.48124,680.1613 544.599401,685.981495 544.599401,685.981495 C545.162826,687.4113 543.934712,688.597823 543.024399,687.261192 C542.114086,685.924561 542.419568,682.494868 536.787873,682.494868 C531.156178,682.494868 532.846348,690.1613 524.954212,690.1613 C517.062076,690.1613 517.889327,683.000123 513.117666,683.000123 C508.346005,683.000123 510.049237,688.937236 507.601656,687.9722 C506.777886,687.647403 506.546088,686.812758 506.906263,685.468266 Z" id="path-87"></path>
        <filter x="-34.2%" y="-150.0%" width="168.4%" height="360.0%" filterUnits="objectBoundingBox" id="filter-88">
            <feOffset dx="0" dy="-2" in="SourceAlpha" result="shadowOffsetOuter1"></feOffset>
            <feGaussianBlur stdDeviation="4" in="shadowOffsetOuter1" result="shadowBlurOuter1"></feGaussianBlur>
            <feColorMatrix values="0 0 0 0 0   0 0 0 0 0   0 0 0 0 0  0 0 0 0.5 0" type="matrix" in="shadowBlurOuter1"></feColorMatrix>
        </filter>
        <path d="M1314.82354,91.9549596 C1315.99604,88.325118 1318.42471,86.5101971 1322.10955,86.5101971 C1327.63681,86.5101971 1328.42631,93.9271788 1334.29632,93.9271788 C1340.16634,93.9271788 1339.84243,86.1172976 1347.06422,86.1172976 C1354.28601,86.1172976 1355.49245,92.5195114 1355.49245,92.5195114 C1356.10036,94.0922976 1354.77529,95.3974731 1353.79311,93.9271788 C1352.81093,92.4568844 1353.14052,88.6842224 1347.06422,88.6842224 C1340.98792,88.6842224 1342.81152,97.1172976 1334.29632,97.1172976 C1325.78113,97.1172976 1326.67369,89.2400028 1321.52531,89.2400028 C1316.37694,89.2400028 1318.21464,95.7708265 1315.57383,94.7092874 C1314.68503,94.3520105 1314.43493,93.4339012 1314.82354,91.9549596 Z" id="path-89"></path>
        <filter x="-31.7%" y="-136.4%" width="163.4%" height="336.4%" filterUnits="objectBoundingBox" id="filter-90">
            <feOffset dx="0" dy="-2" in="SourceAlpha" result="shadowOffsetOuter1"></feOffset>
            <feGaussianBlur stdDeviation="4" in="shadowOffsetOuter1" result="shadowBlurOuter1"></feGaussianBlur>
            <feColorMatrix values="0 0 0 0 0   0 0 0 0 0   0 0 0 0 0  0 0 0 0.5 0" type="matrix" in="shadowBlurOuter1"></feColorMatrix>
        </filter>
        <path d="M911.712946,1012.72686 C912.828249,1009.42701 915.138447,1007.77708 918.643539,1007.77708 C923.901178,1007.77708 924.652167,1014.51979 930.23584,1014.51979 C935.819514,1014.51979 935.511406,1007.4199 942.380914,1007.4199 C949.250422,1007.4199 950.398009,1013.24009 950.398009,1013.24009 C950.97626,1014.6699 949.715827,1015.85642 948.781559,1014.51979 C947.847291,1013.18316 948.160811,1009.75347 942.380914,1009.75347 C936.601017,1009.75347 938.335664,1017.4199 930.23584,1017.4199 C922.136017,1017.4199 922.985038,1010.25872 918.087807,1010.25872 C913.190575,1010.25872 914.93863,1016.19583 912.426638,1015.2308 C911.58119,1014.906 911.343293,1014.07136 911.712946,1012.72686 Z" id="path-91"></path>
        <filter x="-33.3%" y="-150.0%" width="166.7%" height="360.0%" filterUnits="objectBoundingBox" id="filter-92">
            <feOffset dx="0" dy="-2" in="SourceAlpha" result="shadowOffsetOuter1"></feOffset>
            <feGaussianBlur stdDeviation="4" in="shadowOffsetOuter1" result="shadowBlurOuter1"></feGaussianBlur>
            <feColorMatrix values="0 0 0 0 0   0 0 0 0 0   0 0 0 0 0  0 0 0 0.5 0" type="matrix" in="shadowBlurOuter1"></feColorMatrix>
        </filter>
        <path d="M679.983599,858.250227 C681.184694,854.620386 683.6726,852.805465 687.447315,852.805465 C693.109387,852.805465 693.918144,860.222447 699.931331,860.222447 C705.944519,860.222447 705.612709,852.412566 713.010641,852.412566 C720.408573,852.412566 721.644436,858.814779 721.644436,858.814779 C722.267168,860.387566 720.909779,861.692741 719.903643,860.222447 C718.897508,858.752152 719.235146,854.97949 713.010641,854.97949 C706.786137,854.97949 708.654218,863.412566 699.931331,863.412566 C691.208444,863.412566 692.122774,855.535271 686.848833,855.535271 C681.574892,855.535271 683.457412,862.066094 680.752191,861.004555 C679.841708,860.647278 679.585511,859.729169 679.983599,858.250227 Z" id="path-93"></path>
        <filter x="-31.0%" y="-136.4%" width="161.9%" height="336.4%" filterUnits="objectBoundingBox" id="filter-94">
            <feOffset dx="0" dy="-2" in="SourceAlpha" result="shadowOffsetOuter1"></feOffset>
            <feGaussianBlur stdDeviation="4" in="shadowOffsetOuter1" result="shadowBlurOuter1"></feGaussianBlur>
            <feColorMatrix values="0 0 0 0 0   0 0 0 0 0   0 0 0 0 0  0 0 0 0.5 0" type="matrix" in="shadowBlurOuter1"></feColorMatrix>
        </filter>
        <circle id="path-95" cx="1596.57992" cy="851.343275" r="8.5"></circle>
        <filter x="-76.5%" y="-88.2%" width="252.9%" height="252.9%" filterUnits="objectBoundingBox" id="filter-96">
            <feOffset dx="0" dy="-2" in="SourceAlpha" result="shadowOffsetOuter1"></feOffset>
            <feGaussianBlur stdDeviation="4" in="shadowOffsetOuter1" result="shadowBlurOuter1"></feGaussianBlur>
            <feColorMatrix values="0 0 0 0 0   0 0 0 0 0   0 0 0 0 0  0 0 0 0.5 0" type="matrix" in="shadowBlurOuter1"></feColorMatrix>
        </filter>
        <ellipse id="path-97" cx="1541.51014" cy="301.536788" rx="7.5" ry="8"></ellipse>
        <filter x="-86.7%" y="-93.8%" width="273.3%" height="262.5%" filterUnits="objectBoundingBox" id="filter-98">
            <feOffset dx="0" dy="-2" in="SourceAlpha" result="shadowOffsetOuter1"></feOffset>
            <feGaussianBlur stdDeviation="4" in="shadowOffsetOuter1" result="shadowBlurOuter1"></feGaussianBlur>
            <feColorMatrix values="0 0 0 0 0   0 0 0 0 0   0 0 0 0 0  0 0 0 0.5 0" type="matrix" in="shadowBlurOuter1"></feColorMatrix>
        </filter>
        <circle id="path-99" cx="1348.02648" cy="705.195527" r="6"></circle>
        <filter x="-108.3%" y="-125.0%" width="316.7%" height="316.7%" filterUnits="objectBoundingBox" id="filter-100">
            <feOffset dx="0" dy="-2" in="SourceAlpha" result="shadowOffsetOuter1"></feOffset>
            <feGaussianBlur stdDeviation="4" in="shadowOffsetOuter1" result="shadowBlurOuter1"></feGaussianBlur>
            <feColorMatrix values="0 0 0 0 0   0 0 0 0 0   0 0 0 0 0  0 0 0 0.5 0" type="matrix" in="shadowBlurOuter1"></feColorMatrix>
        </filter>
        <circle id="path-101" cx="964.764001" cy="1197.37061" r="7"></circle>
        <filter x="-92.9%" y="-107.1%" width="285.7%" height="285.7%" filterUnits="objectBoundingBox" id="filter-102">
            <feOffset dx="0" dy="-2" in="SourceAlpha" result="shadowOffsetOuter1"></feOffset>
            <feGaussianBlur stdDeviation="4" in="shadowOffsetOuter1" result="shadowBlurOuter1"></feGaussianBlur>
            <feColorMatrix values="0 0 0 0 0   0 0 0 0 0   0 0 0 0 0  0 0 0 0.5 0" type="matrix" in="shadowBlurOuter1"></feColorMatrix>
        </filter>
        <ellipse id="path-103" cx="218.511195" cy="1066.24693" rx="8.5" ry="9"></ellipse>
        <filter x="-76.5%" y="-83.3%" width="252.9%" height="244.4%" filterUnits="objectBoundingBox" id="filter-104">
            <feOffset dx="0" dy="-2" in="SourceAlpha" result="shadowOffsetOuter1"></feOffset>
            <feGaussianBlur stdDeviation="4" in="shadowOffsetOuter1" result="shadowBlurOuter1"></feGaussianBlur>
            <feColorMatrix values="0 0 0 0 0   0 0 0 0 0   0 0 0 0 0  0 0 0 0.5 0" type="matrix" in="shadowBlurOuter1"></feColorMatrix>
        </filter>
        <circle id="path-105" cx="102.035472" cy="1081.44679" r="5.5"></circle>
        <filter x="-118.2%" y="-136.4%" width="336.4%" height="336.4%" filterUnits="objectBoundingBox" id="filter-106">
            <feOffset dx="0" dy="-2" in="SourceAlpha" result="shadowOffsetOuter1"></feOffset>
            <feGaussianBlur stdDeviation="4" in="shadowOffsetOuter1" result="shadowBlurOuter1"></feGaussianBlur>
            <feColorMatrix values="0 0 0 0 0   0 0 0 0 0   0 0 0 0 0  0 0 0 0.5 0" type="matrix" in="shadowBlurOuter1"></feColorMatrix>
        </filter>
        <circle id="path-107" cx="1666.9462" cy="448.24889" r="5"></circle>
        <filter x="-130.0%" y="-150.0%" width="360.0%" height="360.0%" filterUnits="objectBoundingBox" id="filter-108">
            <feOffset dx="0" dy="-2" in="SourceAlpha" result="shadowOffsetOuter1"></feOffset>
            <feGaussianBlur stdDeviation="4" in="shadowOffsetOuter1" result="shadowBlurOuter1"></feGaussianBlur>
            <feColorMatrix values="0 0 0 0 0   0 0 0 0 0   0 0 0 0 0  0 0 0 0.5 0" type="matrix" in="shadowBlurOuter1"></feColorMatrix>
        </filter>
        <circle id="path-109" cx="1324.00696" cy="368.371524" r="4.5"></circle>
        <filter x="-144.4%" y="-166.7%" width="388.9%" height="388.9%" filterUnits="objectBoundingBox" id="filter-110">
            <feOffset dx="0" dy="-2" in="SourceAlpha" result="shadowOffsetOuter1"></feOffset>
            <feGaussianBlur stdDeviation="4" in="shadowOffsetOuter1" result="shadowBlurOuter1"></feGaussianBlur>
            <feColorMatrix values="0 0 0 0 0   0 0 0 0 0   0 0 0 0 0  0 0 0 0.5 0" type="matrix" in="shadowBlurOuter1"></feColorMatrix>
        </filter>
        <circle id="path-111" cx="338.304038" cy="1255.17642" r="5"></circle>
        <filter x="-130.0%" y="-150.0%" width="360.0%" height="360.0%" filterUnits="objectBoundingBox" id="filter-112">
            <feOffset dx="0" dy="-2" in="SourceAlpha" result="shadowOffsetOuter1"></feOffset>
            <feGaussianBlur stdDeviation="4" in="shadowOffsetOuter1" result="shadowBlurOuter1"></feGaussianBlur>
            <feColorMatrix values="0 0 0 0 0   0 0 0 0 0   0 0 0 0 0  0 0 0 0.5 0" type="matrix" in="shadowBlurOuter1"></feColorMatrix>
        </filter>
        <ellipse id="path-113" cx="1219.58449" cy="286.186225" rx="9" ry="9.5"></ellipse>
        <filter x="-72.2%" y="-78.9%" width="244.4%" height="236.8%" filterUnits="objectBoundingBox" id="filter-114">
            <feOffset dx="0" dy="-2" in="SourceAlpha" result="shadowOffsetOuter1"></feOffset>
            <feGaussianBlur stdDeviation="4" in="shadowOffsetOuter1" result="shadowBlurOuter1"></feGaussianBlur>
            <feColorMatrix values="0 0 0 0 0   0 0 0 0 0   0 0 0 0 0  0 0 0 0.5 0" type="matrix" in="shadowBlurOuter1"></feColorMatrix>
        </filter>
        <circle id="path-115" cx="1036.46515" cy="740.479224" r="9"></circle>
        <filter x="-72.2%" y="-83.3%" width="244.4%" height="244.4%" filterUnits="objectBoundingBox" id="filter-116">
            <feOffset dx="0" dy="-2" in="SourceAlpha" result="shadowOffsetOuter1"></feOffset>
            <feGaussianBlur stdDeviation="4" in="shadowOffsetOuter1" result="shadowBlurOuter1"></feGaussianBlur>
            <feColorMatrix values="0 0 0 0 0   0 0 0 0 0   0 0 0 0 0  0 0 0 0.5 0" type="matrix" in="shadowBlurOuter1"></feColorMatrix>
        </filter>
        <ellipse id="path-117" cx="1229.26007" cy="454.355593" rx="8.5" ry="9"></ellipse>
        <filter x="-76.5%" y="-83.3%" width="252.9%" height="244.4%" filterUnits="objectBoundingBox" id="filter-118">
            <feOffset dx="0" dy="-2" in="SourceAlpha" result="shadowOffsetOuter1"></feOffset>
            <feGaussianBlur stdDeviation="4" in="shadowOffsetOuter1" result="shadowBlurOuter1"></feGaussianBlur>
            <feColorMatrix values="0 0 0 0 0   0 0 0 0 0   0 0 0 0 0  0 0 0 0.5 0" type="matrix" in="shadowBlurOuter1"></feColorMatrix>
        </filter>
        <circle id="path-119" cx="855.840097" cy="836.728352" r="5.5"></circle>
        <filter x="-118.2%" y="-136.4%" width="336.4%" height="336.4%" filterUnits="objectBoundingBox" id="filter-120">
            <feOffset dx="0" dy="-2" in="SourceAlpha" result="shadowOffsetOuter1"></feOffset>
            <feGaussianBlur stdDeviation="4" in="shadowOffsetOuter1" result="shadowBlurOuter1"></feGaussianBlur>
            <feColorMatrix values="0 0 0 0 0   0 0 0 0 0   0 0 0 0 0  0 0 0 0.5 0" type="matrix" in="shadowBlurOuter1"></feColorMatrix>
        </filter>
        <ellipse id="path-121" cx="173.476644" cy="1285.05294" rx="6" ry="6.5"></ellipse>
        <filter x="-108.3%" y="-115.4%" width="316.7%" height="300.0%" filterUnits="objectBoundingBox" id="filter-122">
            <feOffset dx="0" dy="-2" in="SourceAlpha" result="shadowOffsetOuter1"></feOffset>
            <feGaussianBlur stdDeviation="4" in="shadowOffsetOuter1" result="shadowBlurOuter1"></feGaussianBlur>
            <feColorMatrix values="0 0 0 0 0   0 0 0 0 0   0 0 0 0 0  0 0 0 0.5 0" type="matrix" in="shadowBlurOuter1"></feColorMatrix>
        </filter>
        <ellipse id="path-123" cx="360.198361" cy="453.748186" rx="9" ry="9.5"></ellipse>
        <filter x="-72.2%" y="-78.9%" width="244.4%" height="236.8%" filterUnits="objectBoundingBox" id="filter-124">
            <feOffset dx="0" dy="-2" in="SourceAlpha" result="shadowOffsetOuter1"></feOffset>
            <feGaussianBlur stdDeviation="4" in="shadowOffsetOuter1" result="shadowBlurOuter1"></feGaussianBlur>
            <feColorMatrix values="0 0 0 0 0   0 0 0 0 0   0 0 0 0 0  0 0 0 0.5 0" type="matrix" in="shadowBlurOuter1"></feColorMatrix>
        </filter>
        <circle id="path-125" cx="241.31336" cy="258.335686" r="6.5"></circle>
        <filter x="-100.0%" y="-115.4%" width="300.0%" height="300.0%" filterUnits="objectBoundingBox" id="filter-126">
            <feOffset dx="0" dy="-2" in="SourceAlpha" result="shadowOffsetOuter1"></feOffset>
            <feGaussianBlur stdDeviation="4" in="shadowOffsetOuter1" result="shadowBlurOuter1"></feGaussianBlur>
            <feColorMatrix values="0 0 0 0 0   0 0 0 0 0   0 0 0 0 0  0 0 0 0.5 0" type="matrix" in="shadowBlurOuter1"></feColorMatrix>
        </filter>
        <circle id="path-127" cx="1572.23477" cy="572.177554" r="8.5"></circle>
        <filter x="-76.5%" y="-88.2%" width="252.9%" height="252.9%" filterUnits="objectBoundingBox" id="filter-128">
            <feOffset dx="0" dy="-2" in="SourceAlpha" result="shadowOffsetOuter1"></feOffset>
            <feGaussianBlur stdDeviation="4" in="shadowOffsetOuter1" result="shadowBlurOuter1"></feGaussianBlur>
            <feColorMatrix values="0 0 0 0 0   0 0 0 0 0   0 0 0 0 0  0 0 0 0.5 0" type="matrix" in="shadowBlurOuter1"></feColorMatrix>
        </filter>
    </defs>
    <g id="Artboard" stroke="none" stroke-width="1" fill="none" fill-rule="evenodd">
        <g id="Group" transform="translate(17.000000, 6.000000)">
            <g id="Triangle" opacity="0.75" transform="translate(1627.844326, 1028.644668) rotate(-167.000000) translate(-1627.844326, -1028.644668) ">
                <use fill="black" fill-opacity="1" filter="url(#filter-2)" xlink:href="#path-1"></use>
                <use fill="#F5A623" fill-rule="evenodd" xlink:href="#path-1"></use>
            </g>
            <g id="Triangle" opacity="0.77" transform="translate(1331.709602, 1162.400604) scale(-1, 1) rotate(-334.000000) translate(-1331.709602, -1162.400604) ">
                <use fill="black" fill-opacity="1" filter="url(#filter-4)" xlink:href="#path-3"></use>
                <use fill="#F5A623" fill-rule="evenodd" xlink:href="#path-3"></use>
            </g>
            <g id="Triangle" opacity="0.83" transform="translate(476.919696, 1040.757875) rotate(-227.000000) translate(-476.919696, -1040.757875) ">
                <use fill="black" fill-opacity="1" filter="url(#filter-6)" xlink:href="#path-5"></use>
                <use fill="#F5A623" fill-rule="evenodd" xlink:href="#path-5"></use>
            </g>
            <g id="Triangle" opacity="0.74" transform="translate(343.380239, 110.682238) scale(-1, 1) rotate(-327.000000) translate(-343.380239, -110.682238) ">
                <use fill="black" fill-opacity="1" filter="url(#filter-8)" xlink:href="#path-7"></use>
                <use fill="#F5A623" fill-rule="evenodd" xlink:href="#path-7"></use>
            </g>
            <g id="Triangle" opacity="0.83" transform="translate(1116.810012, 1186.832304) scale(1, -1) rotate(-10.000000) translate(-1116.810012, -1186.832304) ">
                <use fill="black" fill-opacity="1" filter="url(#filter-10)" xlink:href="#path-9"></use>
                <use fill="#F5A623" fill-rule="evenodd" xlink:href="#path-9"></use>
            </g>
            <g id="Triangle" opacity="0.88" transform="translate(1164.825608, 943.750446) scale(1, -1) rotate(-113.000000) translate(-1164.825608, -943.750446) ">
                <use fill="black" fill-opacity="1" filter="url(#filter-12)" xlink:href="#path-11"></use>
                <use fill="#F5A623" fill-rule="evenodd" xlink:href="#path-11"></use>
            </g>
            <g id="Triangle" opacity="0.85" transform="translate(979.305520, 193.888596) scale(-1, -1) rotate(-328.000000) translate(-979.305520, -193.888596) ">
                <use fill="black" fill-opacity="1" filter="url(#filter-14)" xlink:href="#path-13"></use>
                <use fill="#F5A623" fill-rule="evenodd" xlink:href="#path-13"></use>
            </g>
            <g id="Triangle" opacity="0.74" transform="translate(1579.855938, 1171.184879) scale(-1, -1) rotate(-60.000000) translate(-1579.855938, -1171.184879) ">
                <use fill="black" fill-opacity="1" filter="url(#filter-16)" xlink:href="#path-15"></use>
                <use fill="#F5A623" fill-rule="evenodd" xlink:href="#path-15"></use>
            </g>
            <g id="Triangle" opacity="0.9" transform="translate(1141.805731, 702.461395) scale(1, -1) rotate(-160.000000) translate(-1141.805731, -702.461395) ">
                <use fill="black" fill-opacity="1" filter="url(#filter-18)" xlink:href="#path-17"></use>
                <use fill="#F5A623" fill-rule="evenodd" xlink:href="#path-17"></use>
            </g>
            <g id="Triangle" opacity="0.89" transform="translate(533.241816, 40.785256) scale(-1, -1) rotate(-147.000000) translate(-533.241816, -40.785256) ">
                <use fill="black" fill-opacity="1" filter="url(#filter-20)" xlink:href="#path-19"></use>
                <use fill="#F5A623" fill-rule="evenodd" xlink:href="#path-19"></use>
            </g>
            <g id="Triangle" opacity="0.84" transform="translate(980.762904, 618.186658) scale(-1, -1) rotate(-169.000000) translate(-980.762904, -618.186658) ">
                <use fill="black" fill-opacity="1" filter="url(#filter-22)" xlink:href="#path-21"></use>
                <use fill="#F5A623" fill-rule="evenodd" xlink:href="#path-21"></use>
            </g>
            <g id="Triangle" opacity="0.89" transform="translate(729.134860, 688.693884) scale(-1, 1) rotate(-71.000000) translate(-729.134860, -688.693884) ">
                <use fill="black" fill-opacity="1" filter="url(#filter-24)" xlink:href="#path-23"></use>
                <use fill="#F5A623" fill-rule="evenodd" xlink:href="#path-23"></use>
            </g>
            <g id="Triangle" opacity="0.71" transform="translate(781.331529, 76.770576) scale(1, -1) rotate(-122.000000) translate(-781.331529, -76.770576) ">
                <use fill="black" fill-opacity="1" filter="url(#filter-26)" xlink:href="#path-25"></use>
                <use fill="#F5A623" fill-rule="evenodd" xlink:href="#path-25"></use>
            </g>
            <g id="Triangle" opacity="0.91" transform="translate(530.822272, 360.287904) rotate(-187.000000) translate(-530.822272, -360.287904) ">
                <use fill="black" fill-opacity="1" filter="url(#filter-28)" xlink:href="#path-27"></use>
                <use fill="#F5A623" fill-rule="evenodd" xlink:href="#path-27"></use>
            </g>
            <g id="Triangle" opacity="0.81" transform="translate(1339.922802, 845.985838) scale(1, -1) rotate(-152.000000) translate(-1339.922802, -845.985838) ">
                <use fill="black" fill-opacity="1" filter="url(#filter-30)" xlink:href="#path-29"></use>
                <use fill="#F5A623" fill-rule="evenodd" xlink:href="#path-29"></use>
            </g>
            <g id="Triangle" opacity="0.85" transform="translate(764.112691, 1208.881786) scale(-1, -1) rotate(-39.000000) translate(-764.112691, -1208.881786) ">
                <use fill="black" fill-opacity="1" filter="url(#filter-32)" xlink:href="#path-31"></use>
                <use fill="#F5A623" fill-rule="evenodd" xlink:href="#path-31"></use>
            </g>
            <g id="Triangle" opacity="0.72" transform="translate(709.096210, 550.626179) scale(1, -1) rotate(-325.000000) translate(-709.096210, -550.626179) ">
                <use fill="black" fill-opacity="1" filter="url(#filter-34)" xlink:href="#path-33"></use>
                <use fill="#F5A623" fill-rule="evenodd" xlink:href="#path-33"></use>
            </g>
            <g id="Triangle" opacity="0.94" transform="translate(723.985789, 293.084856) scale(1, -1) rotate(-26.000000) translate(-723.985789, -293.084856) ">
                <use fill="black" fill-opacity="1" filter="url(#filter-36)" xlink:href="#path-35"></use>
                <use fill="#F5A623" fill-rule="evenodd" xlink:href="#path-35"></use>
            </g>
            <g id="Triangle" opacity="0.92" transform="translate(233.851971, 719.741900) scale(1, -1) rotate(-150.000000) translate(-233.851971, -719.741900) ">
                <use fill="black" fill-opacity="1" filter="url(#filter-38)" xlink:href="#path-37"></use>
                <use fill="#F5A623" fill-rule="evenodd" xlink:href="#path-37"></use>
            </g>
            <g id="Triangle-Copy" opacity="0.96" transform="translate(1663.588070, 65.338211) scale(-1, -1) rotate(-208.000000) translate(-1663.588070, -65.338211) ">
                <use fill="black" fill-opacity="1" filter="url(#filter-40)" xlink:href="#path-39"></use>
                <use fill="#F5A623" fill-rule="evenodd" xlink:href="#path-39"></use>
            </g>
            <g id="Triangle-Copy" opacity="0.94" transform="translate(473.332910, 263.921853) scale(-1, 1) rotate(-257.000000) translate(-473.332910, -263.921853) ">
                <use fill="black" fill-opacity="1" filter="url(#filter-42)" xlink:href="#path-41"></use>
                <use fill="#F5A623" fill-rule="evenodd" xlink:href="#path-41"></use>
            </g>
            <g id="Path-2" opacity="0.98" transform="translate(1432.368151, 592.918100) rotate(-276.000000) translate(-1432.368151, -592.918100) ">
                <use fill="black" fill-opacity="1" filter="url(#filter-44)" xlink:href="#path-43"></use>
                <use fill="#50E3C2" fill-rule="evenodd" xlink:href="#path-43"></use>
            </g>
            <g id="Path-2" opacity="0.99" transform="translate(1245.838090, 78.499594) scale(-1, 1) rotate(-69.000000) translate(-1245.838090, -78.499594) ">
                <use fill="black" fill-opacity="1" filter="url(#filter-46)" xlink:href="#path-45"></use>
                <use fill="#50E3C2" fill-rule="evenodd" xlink:href="#path-45"></use>
            </g>
            <g id="Path-2" opacity="0.99" transform="translate(518.368865, 884.514684) rotate(-337.000000) translate(-518.368865, -884.514684) ">
                <use fill="black" fill-opacity="1" filter="url(#filter-48)" xlink:href="#path-47"></use>
                <use fill="#50E3C2" fill-rule="evenodd" xlink:href="#path-47"></use>
            </g>
            <g id="Path-2" opacity="0.83" transform="translate(494.632345, 571.365689) scale(-1, -1) rotate(-44.000000) translate(-494.632345, -571.365689) ">
                <use fill="black" fill-opacity="1" filter="url(#filter-50)" xlink:href="#path-49"></use>
                <use fill="#50E3C2" fill-rule="evenodd" xlink:href="#path-49"></use>
            </g>
            <g id="Path-2" opacity="0.99" transform="translate(350.568453, 600.592002) scale(-1, 1) rotate(-215.000000) translate(-350.568453, -600.592002) ">
                <use fill="black" fill-opacity="1" filter="url(#filter-52)" xlink:href="#path-51"></use>
                <use fill="#50E3C2" fill-rule="evenodd" xlink:href="#path-51"></use>
            </g>
            <g id="Path-2" opacity="0.76" transform="translate(193.690739, 706.340280) scale(-1, 1) rotate(-318.000000) translate(-193.690739, -706.340280) ">
                <use fill="black" fill-opacity="1" filter="url(#filter-54)" xlink:href="#path-53"></use>
                <use fill="#50E3C2" fill-rule="evenodd" xlink:href="#path-53"></use>
            </g>
            <g id="Path-2" opacity="0.92" transform="translate(41.615296, 564.934931) scale(-1, -1) rotate(-215.000000) translate(-41.615296, -564.934931) ">
                <use fill="black" fill-opacity="1" filter="url(#filter-56)" xlink:href="#path-55"></use>
                <use fill="#50E3C2" fill-rule="evenodd" xlink:href="#path-55"></use>
            </g>
            <g id="Path-2" opacity="0.85" transform="translate(1676.459207, 784.097495) scale(-1, 1) rotate(-254.000000) translate(-1676.459207, -784.097495) ">
                <use fill="black" fill-opacity="1" filter="url(#filter-58)" xlink:href="#path-57"></use>
                <use fill="#50E3C2" fill-rule="evenodd" xlink:href="#path-57"></use>
            </g>
            <g id="Path-2" opacity="0.82" transform="translate(1390.171211, 181.340824) scale(-1, 1) rotate(-335.000000) translate(-1390.171211, -181.340824) ">
                <use fill="black" fill-opacity="1" filter="url(#filter-60)" xlink:href="#path-59"></use>
                <use fill="#50E3C2" fill-rule="evenodd" xlink:href="#path-59"></use>
            </g>
            <g id="Path-2" opacity="0.74" transform="translate(1051.285112, 400.642505) rotate(-342.000000) translate(-1051.285112, -400.642505) ">
                <use fill="black" fill-opacity="1" filter="url(#filter-62)" xlink:href="#path-61"></use>
                <use fill="#50E3C2" fill-rule="evenodd" xlink:href="#path-61"></use>
            </g>
            <g id="Path-2" opacity="0.98" transform="translate(646.955907, 1126.584581) scale(-1, 1) rotate(-84.000000) translate(-646.955907, -1126.584581) ">
                <use fill="black" fill-opacity="1" filter="url(#filter-64)" xlink:href="#path-63"></use>
                <use fill="#50E3C2" fill-rule="evenodd" xlink:href="#path-63"></use>
            </g>
            <g id="Path-2" opacity="0.86" transform="translate(57.172649, 930.178823) scale(1, -1) rotate(-33.000000) translate(-57.172649, -930.178823) ">
                <use fill="black" fill-opacity="1" filter="url(#filter-66)" xlink:href="#path-65"></use>
                <use fill="#50E3C2" fill-rule="evenodd" xlink:href="#path-65"></use>
            </g>
            <g id="Path-2" opacity="0.8" transform="translate(171.463744, 244.939015) rotate(-223.000000) translate(-171.463744, -244.939015) ">
                <use fill="black" fill-opacity="1" filter="url(#filter-68)" xlink:href="#path-67"></use>
                <use fill="#50E3C2" fill-rule="evenodd" xlink:href="#path-67"></use>
            </g>
            <g id="Path-2" opacity="0.97" transform="translate(1217.279547, 1047.757511) rotate(-127.000000) translate(-1217.279547, -1047.757511) ">
                <use fill="black" fill-opacity="1" filter="url(#filter-70)" xlink:href="#path-69"></use>
                <use fill="#50E3C2" fill-rule="evenodd" xlink:href="#path-69"></use>
            </g>
            <g id="Path-2" opacity="0.98" transform="translate(984.289655, 101.393986) rotate(-177.000000) translate(-984.289655, -101.393986) ">
                <use fill="black" fill-opacity="1" filter="url(#filter-72)" xlink:href="#path-71"></use>
                <use fill="#50E3C2" fill-rule="evenodd" xlink:href="#path-71"></use>
            </g>
            <g id="Path-2" opacity="0.71" transform="translate(1336.380313, 1034.044512) scale(1, -1) rotate(-191.000000) translate(-1336.380313, -1034.044512) ">
                <use fill="black" fill-opacity="1" filter="url(#filter-74)" xlink:href="#path-73"></use>
                <use fill="#50E3C2" fill-rule="evenodd" xlink:href="#path-73"></use>
            </g>
            <g id="Path-2" opacity="0.74" transform="translate(592.504066, 1168.494971) rotate(-223.000000) translate(-592.504066, -1168.494971) ">
                <use fill="black" fill-opacity="1" filter="url(#filter-76)" xlink:href="#path-75"></use>
                <use fill="#50E3C2" fill-rule="evenodd" xlink:href="#path-75"></use>
            </g>
            <g id="Path-2" opacity="0.93" transform="translate(397.773171, 951.467937) scale(-1, 1) rotate(-353.000000) translate(-397.773171, -951.467937) ">
                <use fill="black" fill-opacity="1" filter="url(#filter-78)" xlink:href="#path-77"></use>
                <use fill="#50E3C2" fill-rule="evenodd" xlink:href="#path-77"></use>
            </g>
            <g id="Path-2" opacity="0.97" transform="translate(4.975119, 444.432155) scale(-1, -1) rotate(-88.000000) translate(-4.975119, -444.432155) ">
                <use fill="black" fill-opacity="1" filter="url(#filter-80)" xlink:href="#path-79"></use>
                <use fill="#50E3C2" fill-rule="evenodd" xlink:href="#path-79"></use>
            </g>
            <g id="Path-2" opacity="0.77" transform="translate(22.760509, 13.499499) scale(-1, 1) rotate(-322.000000) translate(-22.760509, -13.499499) ">
                <use fill="black" fill-opacity="1" filter="url(#filter-82)" xlink:href="#path-81"></use>
                <use fill="#50E3C2" fill-rule="evenodd" xlink:href="#path-81"></use>
            </g>
            <g id="Path-2" opacity="0.71" transform="translate(1176.099192, 549.392143) rotate(-3.000000) translate(-1176.099192, -549.392143) ">
                <use fill="black" fill-opacity="1" filter="url(#filter-84)" xlink:href="#path-83"></use>
                <use fill="#50E3C2" fill-rule="evenodd" xlink:href="#path-83"></use>
            </g>
            <g id="Path-2" opacity="0.94" transform="translate(777.471610, 356.846285) scale(-1, 1) rotate(-189.000000) translate(-777.471610, -356.846285) ">
                <use fill="black" fill-opacity="1" filter="url(#filter-86)" xlink:href="#path-85"></use>
                <use fill="#50E3C2" fill-rule="evenodd" xlink:href="#path-85"></use>
            </g>
            <g id="Path-2" opacity="0.92" transform="translate(525.741907, 685.161300) scale(-1, -1) rotate(-277.000000) translate(-525.741907, -685.161300) ">
                <use fill="black" fill-opacity="1" filter="url(#filter-88)" xlink:href="#path-87"></use>
                <use fill="#50E3C2" fill-rule="evenodd" xlink:href="#path-87"></use>
            </g>
            <g id="Path-2-Copy" opacity="0.89" transform="translate(1335.146207, 91.617298) scale(-1, 1) rotate(-310.000000) translate(-1335.146207, -91.617298) ">
                <use fill="black" fill-opacity="1" filter="url(#filter-90)" xlink:href="#path-89"></use>
                <use fill="#50E3C2" fill-rule="evenodd" xlink:href="#path-89"></use>
            </g>
            <g id="Path-2-Copy" opacity="0.75" transform="translate(931.044264, 1012.419897) scale(1, -1) rotate(-206.000000) translate(-931.044264, -1012.419897) ">
                <use fill="black" fill-opacity="1" filter="url(#filter-92)" xlink:href="#path-91"></use>
                <use fill="#50E3C2" fill-rule="evenodd" xlink:href="#path-91"></use>
            </g>
            <g id="Path-2-Copy" opacity="0.75" transform="translate(700.801942, 857.912566) scale(-1, 1) rotate(-56.000000) translate(-700.801942, -857.912566) ">
                <use fill="black" fill-opacity="1" filter="url(#filter-94)" xlink:href="#path-93"></use>
                <use fill="#50E3C2" fill-rule="evenodd" xlink:href="#path-93"></use>
            </g>
            <g id="Oval" opacity="0.82" transform="translate(1596.579919, 851.343275) scale(-1, 1) rotate(-320.000000) translate(-1596.579919, -851.343275) ">
                <use fill="black" fill-opacity="1" filter="url(#filter-96)" xlink:href="#path-95"></use>
                <use fill="#F8E71C" fill-rule="evenodd" xlink:href="#path-95"></use>
            </g>
            <g id="Oval" opacity="0.87" transform="translate(1541.510139, 301.536788) scale(-1, -1) rotate(-235.000000) translate(-1541.510139, -301.536788) ">
                <use fill="black" fill-opacity="1" filter="url(#filter-98)" xlink:href="#path-97"></use>
                <use fill="#F8E71C" fill-rule="evenodd" xlink:href="#path-97"></use>
            </g>
            <g id="Oval" opacity="0.79" transform="translate(1348.026481, 705.195527) scale(-1, 1) rotate(-117.000000) translate(-1348.026481, -705.195527) ">
                <use fill="black" fill-opacity="1" filter="url(#filter-100)" xlink:href="#path-99"></use>
                <use fill="#F8E71C" fill-rule="evenodd" xlink:href="#path-99"></use>
            </g>
            <g id="Oval" opacity="0.76" transform="translate(964.764001, 1197.370609) scale(-1, 1) rotate(-184.000000) translate(-964.764001, -1197.370609) ">
                <use fill="black" fill-opacity="1" filter="url(#filter-102)" xlink:href="#path-101"></use>
                <use fill="#F8E71C" fill-rule="evenodd" xlink:href="#path-101"></use>
            </g>
            <g id="Oval" opacity="0.78" transform="translate(218.511195, 1066.246927) scale(1, -1) rotate(-148.000000) translate(-218.511195, -1066.246927) ">
                <use fill="black" fill-opacity="1" filter="url(#filter-104)" xlink:href="#path-103"></use>
                <use fill="#F8E71C" fill-rule="evenodd" xlink:href="#path-103"></use>
            </g>
            <g id="Oval" opacity="0.83" transform="translate(102.035472, 1081.446791) scale(-1, -1) rotate(-210.000000) translate(-102.035472, -1081.446791) ">
                <use fill="black" fill-opacity="1" filter="url(#filter-106)" xlink:href="#path-105"></use>
                <use fill="#F8E71C" fill-rule="evenodd" xlink:href="#path-105"></use>
            </g>
            <g id="Oval" opacity="0.79" transform="translate(1666.946202, 448.248890) scale(1, -1) rotate(-325.000000) translate(-1666.946202, -448.248890) ">
                <use fill="black" fill-opacity="1" filter="url(#filter-108)" xlink:href="#path-107"></use>
                <use fill="#F8E71C" fill-rule="evenodd" xlink:href="#path-107"></use>
            </g>
            <g id="Oval" opacity="0.82" transform="translate(1324.006962, 368.371524) scale(1, -1) rotate(-142.000000) translate(-1324.006962, -368.371524) ">
                <use fill="black" fill-opacity="1" filter="url(#filter-110)" xlink:href="#path-109"></use>
                <use fill="#F8E71C" fill-rule="evenodd" xlink:href="#path-109"></use>
            </g>
            <g id="Oval" opacity="0.73" transform="translate(338.304038, 1255.176418) scale(-1, -1) rotate(-67.000000) translate(-338.304038, -1255.176418) ">
                <use fill="black" fill-opacity="1" filter="url(#filter-112)" xlink:href="#path-111"></use>
                <use fill="#F8E71C" fill-rule="evenodd" xlink:href="#path-111"></use>
            </g>
            <g id="Oval" opacity="0.76" transform="translate(1219.584493, 286.186225) scale(-1, 1) rotate(-120.000000) translate(-1219.584493, -286.186225) ">
                <use fill="black" fill-opacity="1" filter="url(#filter-114)" xlink:href="#path-113"></use>
                <use fill="#F8E71C" fill-rule="evenodd" xlink:href="#path-113"></use>
            </g>
            <g id="Oval" opacity="0.95" transform="translate(1036.465154, 740.479224) scale(-1, 1) rotate(-252.000000) translate(-1036.465154, -740.479224) ">
                <use fill="black" fill-opacity="1" filter="url(#filter-116)" xlink:href="#path-115"></use>
                <use fill="#F8E71C" fill-rule="evenodd" xlink:href="#path-115"></use>
            </g>
            <g id="Oval" opacity="0.99" transform="translate(1229.260071, 454.355593) scale(-1, -1) rotate(-311.000000) translate(-1229.260071, -454.355593) ">
                <use fill="black" fill-opacity="1" filter="url(#filter-118)" xlink:href="#path-117"></use>
                <use fill="#F8E71C" fill-rule="evenodd" xlink:href="#path-117"></use>
            </g>
            <g id="Oval" opacity="0.88" transform="translate(855.840097, 836.728352) scale(-1, -1) rotate(-64.000000) translate(-855.840097, -836.728352) ">
                <use fill="black" fill-opacity="1" filter="url(#filter-120)" xlink:href="#path-119"></use>
                <use fill="#F8E71C" fill-rule="evenodd" xlink:href="#path-119"></use>
            </g>
            <g id="Oval" opacity="0.78" transform="translate(173.476644, 1285.052940) rotate(-348.000000) translate(-173.476644, -1285.052940) ">
                <use fill="black" fill-opacity="1" filter="url(#filter-122)" xlink:href="#path-121"></use>
                <use fill="#F8E71C" fill-rule="evenodd" xlink:href="#path-121"></use>
            </g>
            <g id="Oval" opacity="0.77" transform="translate(360.198361, 453.748186) scale(1, -1) rotate(-12.000000) translate(-360.198361, -453.748186) ">
                <use fill="black" fill-opacity="1" filter="url(#filter-124)" xlink:href="#path-123"></use>
                <use fill="#F8E71C" fill-rule="evenodd" xlink:href="#path-123"></use>
            </g>
            <g id="Oval" opacity="0.84" transform="translate(241.313360, 258.335686) rotate(-160.000000) translate(-241.313360, -258.335686) ">
                <use fill="black" fill-opacity="1" filter="url(#filter-126)" xlink:href="#path-125"></use>
                <use fill="#F8E71C" fill-rule="evenodd" xlink:href="#path-125"></use>
            </g>
            <g id="Oval" opacity="0.77" transform="translate(1572.234767, 572.177554) scale(-1, 1) rotate(-323.000000) translate(-1572.234767, -572.177554) ">
                <use fill="black" fill-opacity="1" filter="url(#filter-128)" xlink:href="#path-127"></use>
                <use fill="#F8E71C" fill-rule="evenodd" xlink:href="#path-127"></use>
            </g>
        </g>
    </g>
</svg>